<?xml version="1.0" encoding="UTF-8" standalone="no"?><!DOCTYPE svg PUBLIC "-//W3C//DTD SVG 1.1//EN" "http://www.w3.org/Graphics/SVG/1.1/DTD/svg11.dtd"><!-- Generated by graphviz version 2.40.1 (20161225.0304)
 --><!-- Title: %0 Pages: 1 --><svg xmlns="http://www.w3.org/2000/svg" xmlns:xlink="http://www.w3.org/1999/xlink" width="1628pt" height="548pt" viewBox="0.00 0.00 1628.45 548.00">
<g id="graph0" class="graph" transform="scale(1 1) rotate(0) translate(4 544)">
<title>%0</title>
<polygon fill="#ffffff" stroke="transparent" points="-4,4 -4,-544 1624.4464,-544 1624.4464,4 -4,4"/>
<!-- [root] aws_eip.elastic_ip -->
<g id="node1" class="node">
<title>[root] aws_eip.elastic_ip</title>
<polygon fill="none" stroke="#000000" points="664.4633,-252 545.4197,-252 545.4197,-216 664.4633,-216 664.4633,-252"/>
<text text-anchor="middle" x="604.9415" y="-229.8" font-family="Times,serif" font-size="14.00" fill="#000000">aws_eip.elastic_ip</text>
</g>
<!-- [root] aws_internet_gateway.internet_gateway -->
<g id="node3" class="node">
<title>[root] aws_internet_gateway.internet_gateway</title>
<polygon fill="none" stroke="#000000" points="706.5125,-180 465.3705,-180 465.3705,-144 706.5125,-144 706.5125,-180"/>
<text text-anchor="middle" x="585.9415" y="-157.8" font-family="Times,serif" font-size="14.00" fill="#000000">aws_internet_gateway.internet_gateway</text>
</g>
<!-- [root] aws_eip.elastic_ip&#45;&gt;[root] aws_internet_gateway.internet_gateway -->
<g id="edge1" class="edge">
<title>[root] aws_eip.elastic_ip-&gt;[root] aws_internet_gateway.internet_gateway</title>
<path fill="none" stroke="#000000" d="M600.147,-215.8314C598.0926,-208.0463 595.6455,-198.7729 593.3659,-190.1347"/>
<polygon fill="#000000" stroke="#000000" points="596.7363,-189.1892 590.8006,-180.4133 589.968,-190.9753 596.7363,-189.1892"/>
</g>
<!-- [root] aws_instance.three&#45;tier&#45;application -->
<g id="node2" class="node">
<title>[root] aws_instance.three-tier-application</title>
<polygon fill="none" stroke="#000000" points="1254.2413,-396 1041.6417,-396 1041.6417,-360 1254.2413,-360 1254.2413,-396"/>
<text text-anchor="middle" x="1147.9415" y="-373.8" font-family="Times,serif" font-size="14.00" fill="#000000">aws_instance.three-tier-application</text>
</g>
<!-- [root] aws_security_group.three&#45;tier&#45;application&#45;security&#45;group -->
<g id="node11" class="node">
<title>[root] aws_security_group.three-tier-application-security-group</title>
<polygon fill="none" stroke="#000000" points="1099.1452,-180 762.7378,-180 762.7378,-144 1099.1452,-144 1099.1452,-180"/>
<text text-anchor="middle" x="930.9415" y="-157.8" font-family="Times,serif" font-size="14.00" fill="#000000">aws_security_group.three-tier-application-security-group</text>
</g>
<!-- [root] aws_instance.three&#45;tier&#45;application&#45;&gt;[root] aws_security_group.three&#45;tier&#45;application&#45;security&#45;group -->
<g id="edge2" class="edge">
<title>[root] aws_instance.three-tier-application-&gt;[root] aws_security_group.three-tier-application-security-group</title>
<path fill="none" stroke="#000000" d="M1064.9438,-359.9003C1027.6065,-350.2065 988.9975,-337.4977 975.9415,-324 940.7214,-287.5885 932.5732,-226.0943 930.978,-190.2591"/>
<polygon fill="#000000" stroke="#000000" points="934.4692,-189.9083 930.6707,-180.0178 927.4723,-190.1183 934.4692,-189.9083"/>
</g>
<!-- [root] aws_subnet.public_subnet -->
<g id="node13" class="node">
<title>[root] aws_subnet.public_subnet</title>
<polygon fill="none" stroke="#000000" points="877.8031,-252 714.0799,-252 714.0799,-216 877.8031,-216 877.8031,-252"/>
<text text-anchor="middle" x="795.9415" y="-229.8" font-family="Times,serif" font-size="14.00" fill="#000000">aws_subnet.public_subnet</text>
</g>
<!-- [root] aws_instance.three&#45;tier&#45;application&#45;&gt;[root] aws_subnet.public_subnet -->
<g id="edge3" class="edge">
<title>[root] aws_instance.three-tier-application-&gt;[root] aws_subnet.public_subnet</title>
<path fill="none" stroke="#000000" d="M1043.7345,-359.9426C1006.8568,-351.5505 965.6784,-339.8362 929.9415,-324 891.3326,-306.8911 851.7467,-278.7396 825.7118,-258.4738"/>
<polygon fill="#000000" stroke="#000000" points="827.7722,-255.6412 817.7535,-252.195 823.4365,-261.1368 827.7722,-255.6412"/>
</g>
<!-- [root] data.aws_ami.coreos -->
<g id="node15" class="node">
<title>[root] data.aws_ami.coreos</title>
<polygon fill="none" stroke="#000000" points="1193.0579,-108 1060.8251,-108 1060.8251,-72 1193.0579,-72 1193.0579,-108"/>
<text text-anchor="middle" x="1126.9415" y="-85.8" font-family="Times,serif" font-size="14.00" fill="#000000">data.aws_ami.coreos</text>
</g>
<!-- [root] aws_instance.three&#45;tier&#45;application&#45;&gt;[root] data.aws_ami.coreos -->
<g id="edge4" class="edge">
<title>[root] aws_instance.three-tier-application-&gt;[root] data.aws_ami.coreos</title>
<path fill="none" stroke="#000000" d="M1146.6279,-359.9843C1143.0775,-311.2939 1133.2704,-176.7961 1128.9873,-118.0573"/>
<polygon fill="#000000" stroke="#000000" points="1132.4727,-117.7278 1128.2546,-108.0089 1125.4912,-118.237 1132.4727,-117.7278"/>
</g>
<!-- [root] data.template_file.user_data -->
<g id="node16" class="node">
<title>[root] data.template_file.user_data</title>
<polygon fill="none" stroke="#000000" points="1589.7636,-324 1416.1194,-324 1416.1194,-288 1589.7636,-288 1589.7636,-324"/>
<text text-anchor="middle" x="1502.9415" y="-301.8" font-family="Times,serif" font-size="14.00" fill="#000000">data.template_file.user_data</text>
</g>
<!-- [root] aws_instance.three&#45;tier&#45;application&#45;&gt;[root] data.template_file.user_data -->
<g id="edge5" class="edge">
<title>[root] aws_instance.three-tier-application-&gt;[root] data.template_file.user_data</title>
<path fill="none" stroke="#000000" d="M1237.0648,-359.9243C1288.4862,-349.4952 1353.193,-336.3715 1405.8968,-325.6823"/>
<polygon fill="#000000" stroke="#000000" points="1406.8258,-329.0652 1415.9305,-323.6473 1405.4343,-322.2049 1406.8258,-329.0652"/>
</g>
<!-- [root] var.instance_type -->
<g id="node19" class="node">
<title>[root] var.instance_type</title>
<polygon fill="none" stroke="#000000" points="1093.292,-324 984.591,-324 984.591,-288 1099.292,-288 1099.292,-318 1093.292,-324"/>
<polyline fill="none" stroke="#000000" points="1093.292,-324 1093.292,-318 "/>
<polyline fill="none" stroke="#000000" points="1099.292,-318 1093.292,-318 "/>
<text text-anchor="middle" x="1041.9415" y="-301.8" font-family="Times,serif" font-size="14.00" fill="#000000">var.instance_type</text>
</g>
<!-- [root] aws_instance.three&#45;tier&#45;application&#45;&gt;[root] var.instance_type -->
<g id="edge6" class="edge">
<title>[root] aws_instance.three-tier-application-&gt;[root] var.instance_type</title>
<path fill="none" stroke="#000000" d="M1121.1932,-359.8314C1107.8862,-350.7927 1091.6255,-339.7476 1077.304,-330.0198"/>
<polygon fill="#000000" stroke="#000000" points="1078.92,-326.8864 1068.6812,-324.1628 1074.9868,-332.677 1078.92,-326.8864"/>
</g>
<!-- [root] var.key_name -->
<g id="node20" class="node">
<title>[root] var.key_name</title>
<polygon fill="none" stroke="#000000" points="1243.3511,-324 1154.5319,-324 1154.5319,-288 1249.3511,-288 1249.3511,-318 1243.3511,-324"/>
<polyline fill="none" stroke="#000000" points="1243.3511,-324 1243.3511,-318 "/>
<polyline fill="none" stroke="#000000" points="1249.3511,-318 1243.3511,-318 "/>
<text text-anchor="middle" x="1201.9415" y="-301.8" font-family="Times,serif" font-size="14.00" fill="#000000">var.key_name</text>
</g>
<!-- [root] aws_instance.three&#45;tier&#45;application&#45;&gt;[root] var.key_name -->
<g id="edge7" class="edge">
<title>[root] aws_instance.three-tier-application-&gt;[root] var.key_name</title>
<path fill="none" stroke="#000000" d="M1161.568,-359.8314C1167.7875,-351.5386 1175.2737,-341.557 1182.1015,-332.4533"/>
<polygon fill="#000000" stroke="#000000" points="1184.9315,-334.5133 1188.1315,-324.4133 1179.3315,-330.3133 1184.9315,-334.5133"/>
</g>
<!-- [root] aws_vpc.vpc_application -->
<g id="node14" class="node">
<title>[root] aws_vpc.vpc_application</title>
<polygon fill="none" stroke="#000000" points="739.8427,-108 582.0403,-108 582.0403,-72 739.8427,-72 739.8427,-108"/>
<text text-anchor="middle" x="660.9415" y="-85.8" font-family="Times,serif" font-size="14.00" fill="#000000">aws_vpc.vpc_application</text>
</g>
<!-- [root] aws_internet_gateway.internet_gateway&#45;&gt;[root] aws_vpc.vpc_application -->
<g id="edge8" class="edge">
<title>[root] aws_internet_gateway.internet_gateway-&gt;[root] aws_vpc.vpc_application</title>
<path fill="none" stroke="#000000" d="M604.8672,-143.8314C613.9272,-135.1337 624.9224,-124.5783 634.768,-115.1265"/>
<polygon fill="#000000" stroke="#000000" points="637.2319,-117.613 642.0219,-108.1628 632.3841,-112.5633 637.2319,-117.613"/>
</g>
<!-- [root] aws_key_pair.auth -->
<g id="node4" class="node">
<title>[root] aws_key_pair.auth</title>
<polygon fill="none" stroke="#000000" points="1393.7934,-396 1272.0896,-396 1272.0896,-360 1393.7934,-360 1393.7934,-396"/>
<text text-anchor="middle" x="1332.9415" y="-373.8" font-family="Times,serif" font-size="14.00" fill="#000000">aws_key_pair.auth</text>
</g>
<!-- [root] provider.aws -->
<g id="node17" class="node">
<title>[root] provider.aws</title>
<polygon fill="none" stroke="#000000" points="1126.9415,-36 1040.4032,-18 1126.9415,0 1213.4798,-18 1126.9415,-36"/>
<text text-anchor="middle" x="1126.9415" y="-13.8" font-family="Times,serif" font-size="14.00" fill="#000000">provider.aws</text>
</g>
<!-- [root] aws_key_pair.auth&#45;&gt;[root] provider.aws -->
<g id="edge9" class="edge">
<title>[root] aws_key_pair.auth-&gt;[root] provider.aws</title>
<path fill="none" stroke="#000000" d="M1393.8165,-373.3054C1463.1725,-366.6823 1570.5927,-352.1293 1598.9415,-324 1627.9613,-295.2048 1617.9415,-274.8816 1617.9415,-234 1617.9415,-234 1617.9415,-234 1617.9415,-162 1617.9415,-75.7687 1335.5584,-37.51 1199.0914,-24.0556"/>
<polygon fill="#000000" stroke="#000000" points="1199.4175,-20.5709 1189.127,-23.0918 1198.7435,-27.5384 1199.4175,-20.5709"/>
</g>
<!-- [root] aws_key_pair.auth&#45;&gt;[root] var.key_name -->
<g id="edge10" class="edge">
<title>[root] aws_key_pair.auth-&gt;[root] var.key_name</title>
<path fill="none" stroke="#000000" d="M1299.8847,-359.8314C1282.9738,-350.5368 1262.203,-339.1208 1244.1474,-329.1971"/>
<polygon fill="#000000" stroke="#000000" points="1245.4372,-325.9122 1234.9878,-324.1628 1242.0655,-332.0468 1245.4372,-325.9122"/>
</g>
<!-- [root] var.public_key_path -->
<g id="node21" class="node">
<title>[root] var.public_key_path</title>
<polygon fill="none" stroke="#000000" points="1392.1327,-324 1267.7503,-324 1267.7503,-288 1398.1327,-288 1398.1327,-318 1392.1327,-324"/>
<polyline fill="none" stroke="#000000" points="1392.1327,-324 1392.1327,-318 "/>
<polyline fill="none" stroke="#000000" points="1398.1327,-318 1392.1327,-318 "/>
<text text-anchor="middle" x="1332.9415" y="-301.8" font-family="Times,serif" font-size="14.00" fill="#000000">var.public_key_path</text>
</g>
<!-- [root] aws_key_pair.auth&#45;&gt;[root] var.public_key_path -->
<g id="edge11" class="edge">
<title>[root] aws_key_pair.auth-&gt;[root] var.public_key_path</title>
<path fill="none" stroke="#000000" d="M1332.9415,-359.8314C1332.9415,-352.131 1332.9415,-342.9743 1332.9415,-334.4166"/>
<polygon fill="#000000" stroke="#000000" points="1336.4416,-334.4132 1332.9415,-324.4133 1329.4416,-334.4133 1336.4416,-334.4132"/>
</g>
<!-- [root] aws_nat_gateway.nat -->
<g id="node5" class="node">
<title>[root] aws_nat_gateway.nat</title>
<polygon fill="none" stroke="#000000" points="744.0588,-324 607.8242,-324 607.8242,-288 744.0588,-288 744.0588,-324"/>
<text text-anchor="middle" x="675.9415" y="-301.8" font-family="Times,serif" font-size="14.00" fill="#000000">aws_nat_gateway.nat</text>
</g>
<!-- [root] aws_nat_gateway.nat&#45;&gt;[root] aws_eip.elastic_ip -->
<g id="edge12" class="edge">
<title>[root] aws_nat_gateway.nat-&gt;[root] aws_eip.elastic_ip</title>
<path fill="none" stroke="#000000" d="M658.0252,-287.8314C649.5973,-279.2848 639.4005,-268.9443 630.2055,-259.6198"/>
<polygon fill="#000000" stroke="#000000" points="632.6126,-257.0761 623.099,-252.4133 627.6284,-261.9912 632.6126,-257.0761"/>
</g>
<!-- [root] aws_nat_gateway.nat&#45;&gt;[root] aws_subnet.public_subnet -->
<g id="edge13" class="edge">
<title>[root] aws_nat_gateway.nat-&gt;[root] aws_subnet.public_subnet</title>
<path fill="none" stroke="#000000" d="M706.2226,-287.8314C721.5713,-278.6221 740.3913,-267.3301 756.8238,-257.4706"/>
<polygon fill="#000000" stroke="#000000" points="758.8959,-260.3091 765.6701,-252.1628 755.2944,-254.3066 758.8959,-260.3091"/>
</g>
<!-- [root] aws_route.external_route -->
<g id="node6" class="node">
<title>[root] aws_route.external_route</title>
<polygon fill="none" stroke="#000000" points="157.8245,-396 .0585,-396 .0585,-360 157.8245,-360 157.8245,-396"/>
<text text-anchor="middle" x="78.9415" y="-373.8" font-family="Times,serif" font-size="14.00" fill="#000000">aws_route.external_route</text>
</g>
<!-- [root] aws_route.external_route&#45;&gt;[root] aws_internet_gateway.internet_gateway -->
<g id="edge14" class="edge">
<title>[root] aws_route.external_route-&gt;[root] aws_internet_gateway.internet_gateway</title>
<path fill="none" stroke="#000000" d="M121.296,-359.9555C213.7487,-320.5673 433.3902,-226.9923 533.9949,-184.1311"/>
<polygon fill="#000000" stroke="#000000" points="535.5229,-187.2846 543.351,-180.1451 532.7793,-180.8446 535.5229,-187.2846"/>
</g>
<!-- [root] aws_route.private_route -->
<g id="node7" class="node">
<title>[root] aws_route.private_route</title>
<polygon fill="none" stroke="#000000" points="677.6103,-396 526.2727,-396 526.2727,-360 677.6103,-360 677.6103,-396"/>
<text text-anchor="middle" x="601.9415" y="-373.8" font-family="Times,serif" font-size="14.00" fill="#000000">aws_route.private_route</text>
</g>
<!-- [root] aws_route.private_route&#45;&gt;[root] aws_nat_gateway.nat -->
<g id="edge15" class="edge">
<title>[root] aws_route.private_route-&gt;[root] aws_nat_gateway.nat</title>
<path fill="none" stroke="#000000" d="M620.6148,-359.8314C629.4664,-351.219 640.1901,-340.7851 649.831,-331.4048"/>
<polygon fill="#000000" stroke="#000000" points="652.5476,-333.645 657.2741,-324.1628 647.6661,-328.6279 652.5476,-333.645"/>
</g>
<!-- [root] aws_route_table.private_route_table -->
<g id="node8" class="node">
<title>[root] aws_route_table.private_route_table</title>
<polygon fill="none" stroke="#000000" points="590.0307,-324 369.8523,-324 369.8523,-288 590.0307,-288 590.0307,-324"/>
<text text-anchor="middle" x="479.9415" y="-301.8" font-family="Times,serif" font-size="14.00" fill="#000000">aws_route_table.private_route_table</text>
</g>
<!-- [root] aws_route.private_route&#45;&gt;[root] aws_route_table.private_route_table -->
<g id="edge16" class="edge">
<title>[root] aws_route.private_route-&gt;[root] aws_route_table.private_route_table</title>
<path fill="none" stroke="#000000" d="M571.1557,-359.8314C555.5512,-350.6221 536.4175,-339.3301 519.7112,-329.4706"/>
<polygon fill="#000000" stroke="#000000" points="521.1084,-326.2312 510.7174,-324.1628 517.5506,-332.2596 521.1084,-326.2312"/>
</g>
<!-- [root] aws_route_table.private_route_table&#45;&gt;[root] aws_vpc.vpc_application -->
<g id="edge17" class="edge">
<title>[root] aws_route_table.private_route_table-&gt;[root] aws_vpc.vpc_application</title>
<path fill="none" stroke="#000000" d="M469.4028,-287.781C452.1582,-255.2989 422.9651,-186.7878 455.9415,-144 470.6021,-124.9775 523.5934,-111.3159 572.0233,-102.4932"/>
<polygon fill="#000000" stroke="#000000" points="572.7154,-105.9252 581.9538,-100.7384 571.4973,-99.032 572.7154,-105.9252"/>
</g>
<!-- [root] aws_route_table_association.private_subnet_association -->
<g id="node9" class="node">
<title>[root] aws_route_table_association.private_subnet_association</title>
<polygon fill="none" stroke="#000000" points="508.0139,-396 175.8691,-396 175.8691,-360 508.0139,-360 508.0139,-396"/>
<text text-anchor="middle" x="341.9415" y="-373.8" font-family="Times,serif" font-size="14.00" fill="#000000">aws_route_table_association.private_subnet_association</text>
</g>
<!-- [root] aws_route_table_association.private_subnet_association&#45;&gt;[root] aws_route_table.private_route_table -->
<g id="edge18" class="edge">
<title>[root] aws_route_table_association.private_subnet_association-&gt;[root] aws_route_table.private_route_table</title>
<path fill="none" stroke="#000000" d="M376.7647,-359.8314C394.7426,-350.4516 416.8618,-338.9112 436.0031,-328.9244"/>
<polygon fill="#000000" stroke="#000000" points="437.8826,-331.8916 445.1294,-324.1628 434.6446,-325.6855 437.8826,-331.8916"/>
</g>
<!-- [root] aws_subnet.private_subnet -->
<g id="node12" class="node">
<title>[root] aws_subnet.private_subnet</title>
<polygon fill="none" stroke="#000000" points="408.6781,-180 241.2049,-180 241.2049,-144 408.6781,-144 408.6781,-180"/>
<text text-anchor="middle" x="324.9415" y="-157.8" font-family="Times,serif" font-size="14.00" fill="#000000">aws_subnet.private_subnet</text>
</g>
<!-- [root] aws_route_table_association.private_subnet_association&#45;&gt;[root] aws_subnet.private_subnet -->
<g id="edge19" class="edge">
<title>[root] aws_route_table_association.private_subnet_association-&gt;[root] aws_subnet.private_subnet</title>
<path fill="none" stroke="#000000" d="M340.5213,-359.9555C337.5588,-322.3144 330.7016,-235.1867 327.155,-190.1246"/>
<polygon fill="#000000" stroke="#000000" points="330.6435,-189.8396 326.3696,-180.1451 323.6651,-190.3889 330.6435,-189.8396"/>
</g>
<!-- [root] aws_route_table_association.public_subnet_association -->
<g id="node10" class="node">
<title>[root] aws_route_table_association.public_subnet_association</title>
<polygon fill="none" stroke="#000000" points="1024.1388,-396 695.7442,-396 695.7442,-360 1024.1388,-360 1024.1388,-396"/>
<text text-anchor="middle" x="859.9415" y="-373.8" font-family="Times,serif" font-size="14.00" fill="#000000">aws_route_table_association.public_subnet_association</text>
</g>
<!-- [root] aws_route_table_association.public_subnet_association&#45;&gt;[root] aws_subnet.public_subnet -->
<g id="edge20" class="edge">
<title>[root] aws_route_table_association.public_subnet_association-&gt;[root] aws_subnet.public_subnet</title>
<path fill="none" stroke="#000000" d="M851.8359,-359.7623C840.8236,-334.9846 821.0399,-290.4714 808.2054,-261.5939"/>
<polygon fill="#000000" stroke="#000000" points="811.2411,-259.8062 803.9813,-252.0896 804.8444,-262.6492 811.2411,-259.8062"/>
</g>
<!-- [root] aws_security_group.three&#45;tier&#45;application&#45;security&#45;group&#45;&gt;[root] aws_vpc.vpc_application -->
<g id="edge21" class="edge">
<title>[root] aws_security_group.three-tier-application-security-group-&gt;[root] aws_vpc.vpc_application</title>
<path fill="none" stroke="#000000" d="M863.1576,-143.9243C825.2841,-133.8247 777.9348,-121.1982 738.5767,-110.7027"/>
<polygon fill="#000000" stroke="#000000" points="739.3175,-107.278 728.7533,-108.0831 737.5138,-114.0417 739.3175,-107.278"/>
</g>
<!-- [root] aws_subnet.private_subnet&#45;&gt;[root] aws_vpc.vpc_application -->
<g id="edge22" class="edge">
<title>[root] aws_subnet.private_subnet-&gt;[root] aws_vpc.vpc_application</title>
<path fill="none" stroke="#000000" d="M408.8618,-144.0171C458.5189,-133.3763 521.3806,-119.9059 571.9069,-109.0788"/>
<polygon fill="#000000" stroke="#000000" points="572.7955,-112.468 581.8401,-106.9503 571.3287,-105.6234 572.7955,-112.468"/>
</g>
<!-- [root] aws_subnet.public_subnet&#45;&gt;[root] aws_vpc.vpc_application -->
<g id="edge23" class="edge">
<title>[root] aws_subnet.public_subnet-&gt;[root] aws_vpc.vpc_application</title>
<path fill="none" stroke="#000000" d="M780.3567,-215.7459C764.4853,-197.3295 738.9999,-168.2309 715.9415,-144 706.8609,-134.4576 696.6315,-124.2695 687.4795,-115.3431"/>
<polygon fill="#000000" stroke="#000000" points="689.7103,-112.631 680.094,-108.1836 684.838,-117.657 689.7103,-112.631"/>
</g>
<!-- [root] aws_vpc.vpc_application&#45;&gt;[root] provider.aws -->
<g id="edge24" class="edge">
<title>[root] aws_vpc.vpc_application-&gt;[root] provider.aws</title>
<path fill="none" stroke="#000000" d="M739.992,-77.7862C832.4729,-63.4973 983.5224,-40.1592 1066.9128,-27.2748"/>
<polygon fill="#000000" stroke="#000000" points="1067.6367,-30.7046 1076.985,-25.7186 1066.5678,-23.7867 1067.6367,-30.7046"/>
</g>
<!-- [root] data.aws_ami.coreos&#45;&gt;[root] provider.aws -->
<g id="edge25" class="edge">
<title>[root] data.aws_ami.coreos-&gt;[root] provider.aws</title>
<path fill="none" stroke="#000000" d="M1126.9415,-71.8314C1126.9415,-64.131 1126.9415,-54.9743 1126.9415,-46.4166"/>
<polygon fill="#000000" stroke="#000000" points="1130.4416,-46.4132 1126.9415,-36.4133 1123.4416,-46.4133 1130.4416,-46.4132"/>
</g>
<!-- [root] provider.template -->
<g id="node18" class="node">
<title>[root] provider.template</title>
<polygon fill="none" stroke="#000000" points="1477.9415,-252 1365.8178,-234 1477.9415,-216 1590.0652,-234 1477.9415,-252"/>
<text text-anchor="middle" x="1477.9415" y="-229.8" font-family="Times,serif" font-size="14.00" fill="#000000">provider.template</text>
</g>
<!-- [root] data.template_file.user_data&#45;&gt;[root] provider.template -->
<g id="edge26" class="edge">
<title>[root] data.template_file.user_data-&gt;[root] provider.template</title>
<path fill="none" stroke="#000000" d="M1496.6329,-287.8314C1493.8164,-279.7196 1490.4387,-269.9918 1487.334,-261.0505"/>
<polygon fill="#000000" stroke="#000000" points="1490.5759,-259.7164 1483.9893,-251.4177 1483.9631,-262.0125 1490.5759,-259.7164"/>
</g>
<!-- [root] meta.count&#45;boundary (EachMode fixup) -->
<g id="node22" class="node">
<title>[root] meta.count-boundary (EachMode fixup)</title>
<ellipse fill="none" stroke="#000000" cx="924.9415" cy="-450" rx="191.4666" ry="18"/>
<text text-anchor="middle" x="924.9415" y="-445.8" font-family="Times,serif" font-size="14.00" fill="#000000">[root] meta.count-boundary (EachMode fixup)</text>
</g>
<!-- [root] meta.count&#45;boundary (EachMode fixup)&#45;&gt;[root] aws_instance.three&#45;tier&#45;application -->
<g id="edge27" class="edge">
<title>[root] meta.count-boundary (EachMode fixup)-&gt;[root] aws_instance.three-tier-application</title>
<path fill="none" stroke="#000000" d="M978.6393,-432.6626C1009.8409,-422.5885 1049.3893,-409.8195 1082.4146,-399.1567"/>
<polygon fill="#000000" stroke="#000000" points="1083.5487,-402.4685 1091.9896,-396.0652 1081.3979,-395.8071 1083.5487,-402.4685"/>
</g>
<!-- [root] meta.count&#45;boundary (EachMode fixup)&#45;&gt;[root] aws_key_pair.auth -->
<g id="edge28" class="edge">
<title>[root] meta.count-boundary (EachMode fixup)-&gt;[root] aws_key_pair.auth</title>
<path fill="none" stroke="#000000" d="M1034.2502,-435.1759C1098.0724,-425.8923 1180.3013,-412.8568 1261.9797,-396.1054"/>
<polygon fill="#000000" stroke="#000000" points="1262.8537,-399.4988 1271.9365,-394.0442 1261.4345,-392.6441 1262.8537,-399.4988"/>
</g>
<!-- [root] meta.count&#45;boundary (EachMode fixup)&#45;&gt;[root] aws_route.external_route -->
<g id="edge29" class="edge">
<title>[root] meta.count-boundary (EachMode fixup)-&gt;[root] aws_route.external_route</title>
<path fill="none" stroke="#000000" d="M789.1563,-437.3123C767.6788,-435.4402 745.71,-433.6043 724.9415,-432 480.4306,-413.1126 414.9762,-428.5597 168.0049,-396.0357"/>
<polygon fill="#000000" stroke="#000000" points="168.3826,-392.5552 158.0084,-394.7063 167.4597,-399.4941 168.3826,-392.5552"/>
</g>
<!-- [root] meta.count&#45;boundary (EachMode fixup)&#45;&gt;[root] aws_route.private_route -->
<g id="edge30" class="edge">
<title>[root] meta.count-boundary (EachMode fixup)-&gt;[root] aws_route.private_route</title>
<path fill="none" stroke="#000000" d="M850.4332,-433.3913C801.8767,-422.5676 738.366,-408.4104 687.7073,-397.1181"/>
<polygon fill="#000000" stroke="#000000" points="688.2771,-393.6593 677.7551,-394.8996 686.7541,-400.4916 688.2771,-393.6593"/>
</g>
<!-- [root] meta.count&#45;boundary (EachMode fixup)&#45;&gt;[root] aws_route_table_association.private_subnet_association -->
<g id="edge31" class="edge">
<title>[root] meta.count-boundary (EachMode fixup)-&gt;[root] aws_route_table_association.private_subnet_association</title>
<path fill="none" stroke="#000000" d="M808.7134,-435.6459C719.513,-424.6298 595.4846,-409.3124 497.6966,-397.2356"/>
<polygon fill="#000000" stroke="#000000" points="498.0705,-393.7553 487.7168,-396.0031 497.2124,-400.7025 498.0705,-393.7553"/>
</g>
<!-- [root] meta.count&#45;boundary (EachMode fixup)&#45;&gt;[root] aws_route_table_association.public_subnet_association -->
<g id="edge32" class="edge">
<title>[root] meta.count-boundary (EachMode fixup)-&gt;[root] aws_route_table_association.public_subnet_association</title>
<path fill="none" stroke="#000000" d="M908.5393,-431.8314C900.9,-423.3694 891.6732,-413.1489 883.3208,-403.8971"/>
<polygon fill="#000000" stroke="#000000" points="885.8636,-401.4906 876.5646,-396.4133 880.6677,-406.1813 885.8636,-401.4906"/>
</g>
<!-- [root] provider.aws (close) -->
<g id="node23" class="node">
<title>[root] provider.aws (close)</title>
<ellipse fill="none" stroke="#000000" cx="601.9415" cy="-450" rx="114.0255" ry="18"/>
<text text-anchor="middle" x="601.9415" y="-445.8" font-family="Times,serif" font-size="14.00" fill="#000000">[root] provider.aws (close)</text>
</g>
<!-- [root] provider.aws (close)&#45;&gt;[root] aws_instance.three&#45;tier&#45;application -->
<g id="edge33" class="edge">
<title>[root] provider.aws (close)-&gt;[root] aws_instance.three-tier-application</title>
<path fill="none" stroke="#000000" d="M684.5992,-437.5685C698.0735,-435.6385 711.8892,-433.7175 724.9415,-432 858.3818,-414.4414 894.7023,-414.64 1031.7158,-396.139"/>
<polygon fill="#000000" stroke="#000000" points="1032.32,-399.5892 1041.7575,-394.7741 1031.3772,-392.6529 1032.32,-399.5892"/>
</g>
<!-- [root] provider.aws (close)&#45;&gt;[root] aws_key_pair.auth -->
<g id="edge34" class="edge">
<title>[root] provider.aws (close)-&gt;[root] aws_key_pair.auth</title>
<path fill="none" stroke="#000000" d="M682.8763,-437.234C696.8794,-435.2893 711.3142,-433.4508 724.9415,-432 959.9827,-406.9771 1024.5703,-433.2645 1262.0232,-395.9663"/>
<polygon fill="#000000" stroke="#000000" points="1262.6727,-399.4071 1271.998,-394.3784 1261.5721,-392.4942 1262.6727,-399.4071"/>
</g>
<!-- [root] provider.aws (close)&#45;&gt;[root] aws_route.external_route -->
<g id="edge35" class="edge">
<title>[root] provider.aws (close)-&gt;[root] aws_route.external_route</title>
<path fill="none" stroke="#000000" d="M505.7372,-440.2431C419.7149,-431.0146 290.0218,-415.8626 167.942,-396.0995"/>
<polygon fill="#000000" stroke="#000000" points="168.4748,-392.6402 158.0416,-394.4837 167.3472,-399.5488 168.4748,-392.6402"/>
</g>
<!-- [root] provider.aws (close)&#45;&gt;[root] aws_route.private_route -->
<g id="edge36" class="edge">
<title>[root] provider.aws (close)-&gt;[root] aws_route.private_route</title>
<path fill="none" stroke="#000000" d="M601.9415,-431.8314C601.9415,-424.131 601.9415,-414.9743 601.9415,-406.4166"/>
<polygon fill="#000000" stroke="#000000" points="605.4416,-406.4132 601.9415,-396.4133 598.4416,-406.4133 605.4416,-406.4132"/>
</g>
<!-- [root] provider.aws (close)&#45;&gt;[root] aws_route_table_association.private_subnet_association -->
<g id="edge37" class="edge">
<title>[root] provider.aws (close)-&gt;[root] aws_route_table_association.private_subnet_association</title>
<path fill="none" stroke="#000000" d="M545.2047,-434.2883C507.5793,-423.8689 457.7968,-410.083 416.9167,-398.7624"/>
<polygon fill="#000000" stroke="#000000" points="417.8387,-395.386 407.2673,-396.0902 415.9705,-402.1321 417.8387,-395.386"/>
</g>
<!-- [root] provider.aws (close)&#45;&gt;[root] aws_route_table_association.public_subnet_association -->
<g id="edge38" class="edge">
<title>[root] provider.aws (close)-&gt;[root] aws_route_table_association.public_subnet_association</title>
<path fill="none" stroke="#000000" d="M658.2419,-434.2883C695.4991,-423.8909 744.769,-410.1412 785.2862,-398.834"/>
<polygon fill="#000000" stroke="#000000" points="786.4271,-402.1495 795.1182,-396.0902 784.5454,-395.4071 786.4271,-402.1495"/>
</g>
<!-- [root] provider.template (close) -->
<g id="node24" class="node">
<title>[root] provider.template (close)</title>
<ellipse fill="none" stroke="#000000" cx="1384.9415" cy="-450" rx="132.5012" ry="18"/>
<text text-anchor="middle" x="1384.9415" y="-445.8" font-family="Times,serif" font-size="14.00" fill="#000000">[root] provider.template (close)</text>
</g>
<!-- [root] provider.template (close)&#45;&gt;[root] data.template_file.user_data -->
<g id="edge39" class="edge">
<title>[root] provider.template (close)-&gt;[root] data.template_file.user_data</title>
<path fill="none" stroke="#000000" d="M1399.6477,-432.0535C1420.2281,-406.9384 1457.7533,-361.1449 1481.4623,-332.2119"/>
<polygon fill="#000000" stroke="#000000" points="1484.4189,-334.1259 1488.05,-324.1727 1479.0045,-329.6891 1484.4189,-334.1259"/>
</g>
<!-- [root] root -->
<g id="node25" class="node">
<title>[root] root</title>
<ellipse fill="none" stroke="#000000" cx="924.9415" cy="-522" rx="50.9823" ry="18"/>
<text text-anchor="middle" x="924.9415" y="-517.8" font-family="Times,serif" font-size="14.00" fill="#000000">[root] root</text>
</g>
<!-- [root] root&#45;&gt;[root] meta.count&#45;boundary (EachMode fixup) -->
<g id="edge40" class="edge">
<title>[root] root-&gt;[root] meta.count-boundary (EachMode fixup)</title>
<path fill="none" stroke="#000000" d="M924.9415,-503.8314C924.9415,-496.131 924.9415,-486.9743 924.9415,-478.4166"/>
<polygon fill="#000000" stroke="#000000" points="928.4416,-478.4132 924.9415,-468.4133 921.4416,-478.4133 928.4416,-478.4132"/>
</g>
<!-- [root] root&#45;&gt;[root] provider.aws (close) -->
<g id="edge41" class="edge">
<title>[root] root-&gt;[root] provider.aws (close)</title>
<path fill="none" stroke="#000000" d="M881.7154,-512.3645C829.7445,-500.7796 741.6012,-481.1316 678.1242,-466.9819"/>
<polygon fill="#000000" stroke="#000000" points="678.6796,-463.5199 668.1576,-464.7603 677.1566,-470.3522 678.6796,-463.5199"/>
</g>
<!-- [root] root&#45;&gt;[root] provider.template (close) -->
<g id="edge42" class="edge">
<title>[root] root-&gt;[root] provider.template (close)</title>
<path fill="none" stroke="#000000" d="M971.5802,-514.7C1045.3716,-503.1501 1190.6188,-480.4157 1287.7662,-465.21"/>
<polygon fill="#000000" stroke="#000000" points="1288.5556,-468.6292 1297.8941,-463.6248 1287.4731,-461.7134 1288.5556,-468.6292"/>
</g>
</g>
</svg>